<svg xmlns="http://www.w3.org/2000/svg" viewBox="0 0 1125.16 391.63"><defs><style>.cls-1,.cls-2,.cls-3{fill:#fff;}.cls-2{fill-rule:evenodd;}.cls-3{font-size:75.58px;font-family:NexaBold, Nexa Bold;}.cls-4{letter-spacing:-0.03em;}.cls-5{letter-spacing:0em;}.cls-6{letter-spacing:-0.04em;}</style></defs><title>pb_seagate</title><g id="Layer_2" data-name="Layer 2"><g id="BLACK"><path class="cls-1" d="M408,257.53a41.39,41.39,0,0,0-9.61-3.83,88.57,88.57,0,0,1-9.62-3.09,23.27,23.27,0,0,1-7.38-4.47q-3-2.74-3-7.9a12.28,12.28,0,0,1,.75-4,11,11,0,0,1,2.57-4.08,13.58,13.58,0,0,1,4.87-3.08,20.8,20.8,0,0,1,7.61-1.2,18.56,18.56,0,0,1,8.58,1.94,14.88,14.88,0,0,1,5.84,5.16l8.93-8.13a21.88,21.88,0,0,0-10.65-7.44,43.73,43.73,0,0,0-12.7-1.83,31.84,31.84,0,0,0-12.53,2.22,27,27,0,0,0-8.53,5.56,21.63,21.63,0,0,0-6.41,14.87q0,7.9,3,12.54a23.55,23.55,0,0,0,7.39,7.38,38.48,38.48,0,0,0,9.61,4.29q5.21,1.55,9.61,3.21a25.88,25.88,0,0,1,7.39,4.11,8.79,8.79,0,0,1,3,7.16,11.21,11.21,0,0,1-1.5,5.84,14.37,14.37,0,0,1-3.83,4.24,17.48,17.48,0,0,1-5.21,2.57,19.43,19.43,0,0,1-5.6.85,22.8,22.8,0,0,1-9.56-2.11,18,18,0,0,1-7.61-6.58l-9,7.77a24,24,0,0,0,11.1,8.47,39.79,39.79,0,0,0,14.76,2.76,34.38,34.38,0,0,0,11-1.72,26.46,26.46,0,0,0,8.92-4.93,23.39,23.39,0,0,0,6-7.89,24.37,24.37,0,0,0,2.23-10.53q0-7.32-3-11.5A22.31,22.31,0,0,0,408,257.53Z"/><polygon class="cls-1" points="489.06 262.4 527.51 262.4 527.51 252.1 489.06 252.1 489.06 227.94 530.38 227.94 530.38 217.65 478.07 217.65 478.07 298.68 532.44 298.68 532.44 288.36 489.06 288.36 489.06 262.4"/><path class="cls-1" d="M616.9,217.65l-35.71,81H594l8-20h38.57l8.13,20h12.81l-34.67-81Zm-11,51.38,15.34-37.19h.23L636.58,269Z"/><path class="cls-1" d="M755.61,263.65h18V286.2a31.23,31.23,0,0,1-8.87,3.15,54.33,54.33,0,0,1-11,1.08A31.3,31.3,0,0,1,741.19,288a30.65,30.65,0,0,1-10-6.81,31.8,31.8,0,0,1-6.64-10.24,33.47,33.47,0,0,1-2.4-12.76,35.88,35.88,0,0,1,2.17-12.53,30.86,30.86,0,0,1,6.18-10.24,29.43,29.43,0,0,1,22.21-9.5,36.72,36.72,0,0,1,11.79,1.89,28.7,28.7,0,0,1,10.65,6.69l7.77-8.36a33.68,33.68,0,0,0-11.9-7.72c-4.74-1.87-10.83-2.8-18.31-2.8a43.48,43.48,0,0,0-17.06,3.26,39.77,39.77,0,0,0-13.33,9,41.58,41.58,0,0,0-8.7,13.5,44.64,44.64,0,0,0-3.14,16.83,45.64,45.64,0,0,0,2.92,16.31A39.69,39.69,0,0,0,721.91,288a40.57,40.57,0,0,0,13.61,9.28,46.75,46.75,0,0,0,18.37,3.43,71.1,71.1,0,0,0,7.84-.47,67.26,67.26,0,0,0,8.24-1.43,69.41,69.41,0,0,0,7.85-2.35,36.63,36.63,0,0,0,6.74-3.2V253.36H755.61Z"/><path class="cls-1" d="M873.5,217.65l-35.71,81H850.6l8-20h38.58l8.12,20h12.82l-34.67-81ZM862.5,269l15.35-37.19h.22L893.18,269Z"/><polygon class="cls-1" points="952.46 227.94 978.56 227.94 978.56 298.68 989.54 298.68 989.54 227.94 1015.64 227.94 1015.64 217.65 952.46 217.65 952.46 227.94"/><polygon class="cls-1" points="1081.78 262.4 1120.24 262.4 1120.24 252.1 1081.78 252.1 1081.78 227.94 1123.1 227.94 1123.1 217.65 1070.8 217.65 1070.8 298.68 1125.16 298.68 1125.16 288.36 1081.78 288.36 1081.78 262.4"/><path class="cls-2" d="M143.32,391.63l-9.91-37.71c3.49-1.69,6.36-3,10.17-4.91,15.81-6.74,31.1-14.46,45.32-24.16,17.8-12.14,34.43-25.71,48.92-41.7,11.36-12.55,20.83-26.4,26.24-42.67,3.6-10.82,5.36-21.89,3.78-33.3a60.71,60.71,0,0,0-10.16-26,65.71,65.71,0,0,0-25.2-22c-12.85-6.49-26.55-8.89-40.82-8.47a116.52,116.52,0,0,0-36.69,7.5c-21.82,8-41.84,19.37-61,32.26a77.1,77.1,0,0,0-15.21,13.25,21.19,21.19,0,0,0-5.08,9.56c-1.33,6.22,2.24,11,8.58,11.25,4.44.21,8.39-1.51,12.27-3.34,12.07-5.7,23-13.39,34.25-20.43,9.26-5.77,18.61-11.41,28.78-15.46s20.39-6.19,31.24-4.37c11.81,2,21.32,7.55,27.09,18.4,4,7.6,4.37,15.66,2.24,23.88-2.43,9.36-7.85,17-14.26,23.94a130,130,0,0,1-30.27,24.24c-11.8,6.92-23.5,14.05-35.59,20.41-14.15,7.44-29.23,12.71-44.58,17.16A106.41,106.41,0,0,1,54,313.25c-11.22-1-21.79-4.25-31.1-10.74A50.16,50.16,0,0,1,4.5,279.29C-1.31,264.47-1,249.37,2.66,234.17c4.16-17.19,12.87-32,23.62-45.84A188.55,188.55,0,0,1,54,160.05a307.94,307.94,0,0,1,45.89-32.21c5.53-3.15,11.15-6.1,16.4-9,1.84,3.76,3.59,7.37,5.38,11.06-4.86,2.61-9.66,5.11-14.39,7.75a257,257,0,0,0-55.65,41.38,117.23,117.23,0,0,0-22.43,30.2c-6.05,11.85-9.3,24.39-7.87,37.77,1.57,14.64,8.44,25.89,21.92,32.65,8,4,16.64,5.23,25.5,5,12.2-.27,23.71-3.73,35.08-7.8,16.94-6.06,32.71-14.52,48.06-23.79,9-5.44,18-11,25.61-18.34,4-3.88,8-7.84,10.1-13.25,3.65-9.62-1.54-17.94-11.85-18.92-5.6-.53-10.69,1.33-15.65,3.63C147,212.32,135.22,220.62,123,228.2c-9.33,5.79-18.76,11.41-29,15.43-7.1,2.77-14.45,4.51-22.16,3.63-13.23-1.52-21.51-12-20.07-25.22,1.13-10.41,6.2-18.91,13-26.49a125.29,125.29,0,0,1,25.89-21.31c14.57-9.31,29.35-18.22,45.16-25.31,18.34-8.22,37.15-14.74,57.32-16.51a126.51,126.51,0,0,1,43.29,3.23A99.47,99.47,0,0,1,271.13,152a89.69,89.69,0,0,1,25,28.44,79.49,79.49,0,0,1,9.9,32.66,95.61,95.61,0,0,1-4,35.84,134.11,134.11,0,0,1-14.38,32.39,195,195,0,0,1-31.26,38.39c-12.3,11.67-24.73,23.18-38.73,32.83-18.21,12.56-37.18,23.74-57.7,32.16C154.52,386.94,149.06,389.24,143.32,391.63Z"/><text class="cls-3" transform="translate(0 64.24)">P<tspan class="cls-4" x="51.09" y="0">O</tspan><tspan class="cls-5" x="108.08" y="0">WERED </tspan><tspan class="cls-6" x="404.13" y="0">B</tspan><tspan x="452.58" y="0">Y</tspan></text></g></g></svg>